HIERARCHY
ROOT Hips
{
  OFFSET 265.287 66.7526 -254.649
  CHANNELS 6 Xposition Yposition Zposition Zrotation Xrotation Yrotation
  JOINT LeftUpLeg
  {
    OFFSET 8.64259 1.95398 -2.38835
    CHANNELS 3 Zrotation Xrotation Yrotation
    JOINT LeftLeg
    {
      OFFSET 43.7702 0 0
      CHANNELS 3 Zrotation Xrotation Yrotation
      JOINT LeftFoot
      {
        OFFSET 40.6238 0 0
        CHANNELS 3 Zrotation Xrotation Yrotation
        JOINT LeftToeBase
        {
          OFFSET 12.7242 0 0
          CHANNELS 3 Zrotation Xrotation Yrotation
          End Site
          {
            OFFSET 0 0 0
          }
        }
      }
    }
  }
  JOINT RightUpLeg
  {
    OFFSET -8.2249 1.95398 -2.59336
    CHANNELS 3 Zrotation Xrotation Yrotation
    JOINT RightLeg
    {
      OFFSET 43.5653 0 0
      CHANNELS 3 Zrotation Xrotation Yrotation
      JOINT RightFoot
      {
        OFFSET 40.6238 0 0
        CHANNELS 3 Zrotation Xrotation Yrotation
        JOINT RightToeBase
        {
          OFFSET 12.7242 0 0
          CHANNELS 3 Zrotation Xrotation Yrotation
          End Site
          {
            OFFSET 0 0 0
          }
        }
      }
    }
  }
  JOINT Spine
  {
    OFFSET 0.165834 0.87714 6.61349
    CHANNELS 3 Zrotation Xrotation Yrotation
    JOINT Spine1
    {
      OFFSET 7.38963 1.71661e-005 0
      CHANNELS 3 Zrotation Xrotation Yrotation
      JOINT Spine2
      {
        OFFSET 11.9445 1.14441e-005 0
        CHANNELS 3 Zrotation Xrotation Yrotation
        JOINT Spine3
        {
          OFFSET 14.7254 4.19617e-005 0
          CHANNELS 3 Zrotation Xrotation Yrotation
          JOINT Spine4
          {
            OFFSET 10.9679 0 0
            CHANNELS 3 Zrotation Xrotation Yrotation
            JOINT RightShoulder
            {
              OFFSET 2.46616 -1.6653 3.69651
              CHANNELS 3 Zrotation Xrotation Yrotation
              JOINT RightArm
              {
                OFFSET 13.0012 0 0
                CHANNELS 3 Zrotation Xrotation Yrotation
                JOINT RightForeArm
                {
                  OFFSET 28.7848 1.52588e-005 0
                  CHANNELS 3 Zrotation Xrotation Yrotation
                  JOINT RightHand
                  {
                    OFFSET 26.5688 1.52588e-005 0
                    CHANNELS 3 Zrotation Xrotation Yrotation
                    End Site
                    {
                      OFFSET 0 0 0
                    }
                  }
                }
              }
            }
            JOINT LeftShoulder
            {
              OFFSET 2.38034 -1.29275 -3.7523
              CHANNELS 3 Zrotation Xrotation Yrotation
              JOINT LeftArm
              {
                OFFSET 16.3182 6.10351e-005 0
                CHANNELS 3 Zrotation Xrotation Yrotation
                JOINT LeftForeArm
                {
                  OFFSET 27.0901 0 0
                  CHANNELS 3 Zrotation Xrotation Yrotation
                  JOINT LeftHand
                  {
                    OFFSET 24.5451 1.52588e-005 0
                    CHANNELS 3 Zrotation Xrotation Yrotation
                    End Site
                    {
                      OFFSET 0 0 0
                    }
                  }
                }
              }
            }
            JOINT Neck
            {
              OFFSET 5.0226 -0.0266342 0
              CHANNELS 3 Zrotation Xrotation Yrotation
              JOINT Head
              {
                OFFSET 6.69364 2.86102e-005 0
                CHANNELS 3 Zrotation Xrotation Yrotation
                End Site
                {
                  OFFSET 0 0 0
                }
              }
            }
          }
        }
      }
    }
  }
}
MOTION
Frames:	12
Frame Time:	0.0416667
-24.397 95.1666 57.0311 102.717 44.4405 80.2244 -176.589 -2.10327 86.363 -26.8895 23.1685 3.37564 66.0136 5.52865 15.663 39.9279 -3.42989 -1.80988 172.396 18.053 84.8902 -22.2105 1.20975 1.61871 52.9688 4.79211 17.078 38.7867 -1.4491 0.119404 -0.556148 7.88511 -89.7927 11.1061 -1.01072 0.510528 -0.564586 -0.987284 0.554507 -23.1027 -1.11744 0.183128 -3.09008 -1.11744 0.183122 100.237 -62.0859 -84.7781 21.1659 -1.56317 0.712254 -2.56276 -15.8349 -18.0823 -9.76717 -0.814984 4.72953 -83.2442 -51.2057 88.7896 -13.5922 13.6746 -31.8992 12.6461 22.9642 -24.4733 8.05281 -0.0612611 -4.04914 -10.6041 -0.030108 -1.04618 -26.69 -0.535454 2.68314 
-18.628 95.1462 53.5335 102.337 46.0818 78.7249 -176.98 -6.64715 86.3007 -24.9851 25.6162 3.88692 65.0414 5.60336 15.7102 43.7127 -4.6129 -0.278127 175.886 15.5113 82.8353 -5.23768 8.98217 -1.59963 52.4079 6.36837 20.9868 34.481 -0.633186 -3.19044 -0.56904 7.81217 -89.7276 11.2523 -1.00557 0.641989 -0.418451 -0.97634 0.685621 -22.9563 -1.15202 0.31007 -2.94368 -1.15202 0.310061 100.083 -62.0204 -84.9886 21.3255 -1.2169 0.422022 -2.82599 -16.7239 -17.2694 -7.8657 -0.609247 4.07264 -83.382 -51.6405 88.6256 -12.6567 14.2537 -32.2431 13.8773 22.7064 -26.8931 8.04519 -0.0806279 -4.26152 -11.2946 -0.571756 -0.60068 -26.1562 -0.954414 1.98382 
-11.832 94.4723 49.5274 101.819 47.5333 78.5004 -178.22 -7.8714 86.7779 -30.1471 26.0056 5.61599 64.4484 4.7215 12.0689 48.8564 -5.99287 2.23582 174.51 16.0808 82.2145 -9.09998 5.70538 -0.49012 48.462 7.75025 17.2103 37.2442 -1.119 -2.75551 -0.555515 7.66241 -89.8623 11.5495 -1.04059 0.38116 -0.121065 -1.02276 0.426579 -22.6594 -1.10701 0.0507645 -2.64675 -1.10702 0.0507616 100.347 -62.1533 -84.6276 20.6047 -0.900243 0.0796813 -2.75925 -17.3195 -16.3199 -7.59206 -0.570264 3.78526 -83.3443 -53.1644 88.8257 -14.1174 14.6266 -28.9985 11.373 24.2425 -22.5905 7.82789 -0.0861873 -4.31443 -11.3568 -0.790478 0.0178659 -26.5146 -1.19242 1.90112 
-4.98605 94.4013 45.7735 101.836 48.3305 80.5358 -177.75 -6.07659 92.8324 -38.6163 20.7636 5.99738 55.9469 0.0866531 -1.03325 54.5511 -8.09934 -0.97661 174.578 17.6522 84.784 -20.4179 1.07936 0.555482 48.5317 9.23808 12.1624 30.874 0.117889 -4.01359 -0.518194 7.53294 -90.3323 11.8085 -1.18672 -0.534944 0.137999 -1.2091 -0.482204 -22.3997 -0.971088 -0.866888 -2.38707 -0.971075 -0.86689 100.468 -61.4952 -84.4808 19.7781 -0.68944 -0.214839 -2.65854 -16.9193 -16.2335 -7.67146 -0.614962 4.43308 -83.4223 -54.968 88.8788 -18.1857 13.6984 -22.6606 5.03675 26.6506 -11.0338 8.29798 0.0377849 -3.02991 -11.4497 -1.02173 0.298756 -26.0857 -1.52351 2.35709 
0.760177 94.3768 43.0003 102.702 51.0258 81.168 -179.65 4.10207 93.6733 -56.4954 18.0018 5.55552 48.521 -2.16803 5.66837 48.8006 -6.41538 -3.17137 173.52 16.8065 86.6821 -28.6534 3.49972 2.05544 56.3198 7.84574 10.7077 28.4803 0.387124 -2.90834 -0.672143 7.56745 -90.6424 11.7304 -1.6382 -1.10831 0.0600698 -1.68539 -1.03512 -22.4765 -1.22941 -1.54939 -2.46384 -1.22941 -1.54939 100.829 -60.868 -84.0033 18.3897 -1.10888 -1.57413 -2.98855 -15.1771 -18.0683 -7.07647 -0.510394 3.45472 -84.2597 -54.8239 87.6651 -23.5991 12.1268 -17.079 -0.664356 29.8025 -0.00113683 4.15074 0.0404291 -2.07209 -10.2784 -1.95843 -1.94719 -23.8167 -2.35779 2.65214 
5.40912 94.6384 40.6501 104.149 49.5649 80.4242 -179.936 11.7977 93.2482 -63.6596 13.1438 4.20388 51.4303 -0.521916 6.66764 46.2606 -5.74308 -6.35051 173.938 13.8429 88.2232 -31.6938 3.76855 1.76108 60.4117 6.47799 10.5713 29.2636 0.214494 -2.58457 -0.364139 7.86447 -90.6546 11.1381 -1.02851 -1.20249 -0.532958 -1.08045 -1.15606 -23.0649 -0.619622 -1.45596 -3.05227 -0.619619 -1.45597 100.616 -61.4604 -84.2811 16.1359 -1.88851 -4.58952 -1.87262 -11.4255 -20.6431 -11.7495 -0.949037 4.35208 -84.1928 -54.0594 87.681 -26.2874 11.8764 -13.4559 -1.24274 39.0061 0.0734462 -4.3255 -0.108738 -4.12592 -10.1671 -2.51923 -5.19307 -21.3851 -2.73988 2.95108 
9.10844 95.1116 38.652 103.068 44.9745 80.8211 -178.305 15.4921 90.9494 -54.9233 12.4009 3.04138 55.7881 1.33375 7.87071 48.7747 -6.23492 -1.60707 174.434 11.9448 88.6033 -32.5203 2.06817 1.06704 62.9674 4.89496 11.7894 28.3804 0.264116 -1.7182 0.0818184 8.01482 -90.6052 10.8423 -0.116634 -1.19282 -0.829168 -0.169004 -1.18653 -23.3601 0.247207 -1.17274 -3.34747 0.247229 -1.17273 99.9356 -59.665 -85.2683 15.873 -2.39668 -7.67566 -1.93781 -9.81733 -23.2051 -13.2762 -1.01791 3.79087 -83.8916 -55.3104 88.2404 -26.9151 12.3055 -7.74624 -0.525667 33.3168 -1.41814 -4.50709 -0.112003 -3.52083 -9.86677 -2.16205 -4.27257 -20.7592 -2.40294 2.98179 
12.0897 95.7152 36.6751 100.96 40.6995 82.9952 -178.634 15.3645 90.007 -34.4002 13.5179 3.19711 55.7825 1.18684 6.57195 54.3498 -7.29522 4.54623 175.384 9.69729 89.7264 -30.3113 -0.253048 0.262151 63.7024 4.06127 12.5849 28.8729 0.200206 -1.86781 0.376663 8.01157 -90.6427 10.8516 0.453102 -1.32064 -0.819979 0.394541 -1.33931 -23.3516 0.829047 -1.12345 -3.33894 0.829016 -1.12346 99.3708 -58.4233 -86.1077 15.5153 -2.81555 -9.59827 -2.85866 -10.0041 -26.3402 -12.7064 -0.896618 3.10798 -83.666 -56.0341 88.6299 -27.885 11.5167 -5.31275 1.56291 30.6336 -3.99488 0.974698 -0.0391029 -2.73846 -9.54192 -1.53712 -3.51286 -19.8482 -1.95362 4.19956 
14.9079 96.2062 34.6679 99.2859 36.5804 85.5523 177.081 13.741 90.8669 -17.9643 24.9847 5.32817 53.7565 0.258602 2.50329 51.5718 -6.35721 6.54268 176.134 6.67507 91.0278 -26.771 -2.64353 -0.11792 64.6905 3.14697 13.6269 27.8013 0.384358 -1.94741 0.409794 7.95238 -90.6688 10.9703 0.506072 -1.37877 -0.701279 0.444904 -1.3997 -23.2328 0.897022 -1.16297 -3.22012 0.897025 -1.16298 98.2905 -57.7621 -87.6704 16.121 -3.67358 -11.2624 -3.29798 -10.7992 -27.2246 -12.3409 -0.859232 2.9995 -83.2104 -55.5285 89.2311 -28.0589 11.2766 -6.52967 2.65457 32.1841 -5.22876 -1.20236 -0.0826798 -3.60137 -9.37715 -0.597035 -3.21764 -20.3372 -1.18356 5.17352 
17.7732 96.1747 32.2901 97.5753 27.8583 87.9339 174.027 11.5731 92.1711 -12.3159 39.2602 9.81517 52.3674 -1.87691 -7.68658 50.2574 -6.09351 5.94804 176.858 5.40949 91.2372 -26.2468 -8.25639 -0.942493 66.125 2.31975 15.7287 27.1622 0.421506 -1.4371 0.635149 7.92099 -90.5613 11.036 1.00419 -1.2132 -0.635199 0.949834 -1.25622 -23.1708 1.32238 -0.855326 -3.15817 1.32237 -0.855325 97.6336 -57.6101 -88.6136 16.6445 -5.93146 -12.8673 -2.04598 -10.6752 -25.7651 -13.1045 -0.848847 2.41812 -83.0725 -56.1774 89.4815 -25.3442 11.7806 -8.5503 3.49691 31.3667 -7.02627 -0.831739 -0.0622001 -3.00019 -10.2711 -0.418341 -2.11229 -18.7485 -0.910649 4.39364 
20.9485 95.9793 29.6126 95.8332 16.908 91.4977 175.019 10.6913 94.6852 -15.8309 42.1267 11.3565 52.0849 -1.70717 -4.64678 45.7247 -5.05424 2.01753 178.122 4.73488 92.072 -25.8298 -14.4901 -2.04086 67.3504 1.42796 18.5476 26.7922 0.381597 -0.704362 0.777247 7.83264 -90.5468 11.214 1.29265 -1.21488 -0.456916 1.23793 -1.27059 -22.9951 1.59802 -0.770176 -2.98245 1.59799 -0.77019 97.2018 -57.7782 -89.2122 16.7523 -7.16672 -12.937 -2.95303 -13.7691 -25.3617 -9.72228 -0.66483 2.89877 -83.047 -56.3273 89.5301 -23.1282 12.5019 -8.68904 4.53959 26.9809 -9.98712 5.52499 0.0635369 -1.92589 -9.72501 -0.884876 -1.21525 -16.6931 -1.04087 1.93693 
23.5379 96.1848 27.1267 94.2914 9.49662 91.0137 176.23 10.5592 93.0391 -19.3152 38.14 11.921 53.9979 -0.546745 4.07946 41.6751 -3.99461 -0.704331 -179.799 4.99225 91.5962 -26.2125 -16.473 -5.00237 67.3585 1.11142 20.0328 30.0118 -0.192839 0.188536 0.342275 7.68174 -90.2007 11.5128 0.587203 -0.461054 -0.158097 0.566342 -0.486457 -22.694 0.698612 -0.263253 -2.68136 0.698618 -0.263258 97.6917 -59.2536 -88.4117 18.392 -5.63877 -10.6254 -2.61959 -13.6753 -23.9421 -12.1243 -0.826905 2.85825 -83.5324 -54.7066 88.6972 -20.356 12.16 -11.2567 2.75318 27.8592 -6.96032 4.53219 0.010956 -2.71403 -9.61651 -3.73372 -1.4271 -14.3468 -3.47354 -2.06897 
